G75*
G70*
%OFA0B0*%
%FSLAX24Y24*%
%IPPOS*%
%LPD*%
%AMOC8*
5,1,8,0,0,1.08239X$1,22.5*
%
%ADD10C,0.0100*%
%ADD11C,0.0060*%
%ADD12C,0.0000*%
D10*
X001229Y003177D02*
X001229Y011444D01*
X008316Y011444D01*
X008316Y003177D01*
X001229Y003177D01*
X002134Y004555D02*
X002134Y005421D01*
X002312Y005421D01*
X002312Y005445D02*
X002445Y005445D01*
X002469Y005421D02*
X002312Y005578D01*
X002312Y005244D01*
X002469Y005401D01*
X002469Y005421D01*
X002415Y005347D02*
X002312Y005347D01*
X002312Y005248D02*
X002316Y005248D01*
X002312Y005544D02*
X002346Y005544D01*
X003119Y005578D02*
X003119Y005421D01*
X003119Y005283D01*
X003119Y005421D02*
X003316Y005421D01*
X003316Y004535D01*
X004162Y004555D02*
X004162Y005421D01*
X004339Y005421D01*
X004339Y005445D02*
X004472Y005445D01*
X004497Y005421D02*
X004339Y005578D01*
X004339Y005244D01*
X004497Y005401D01*
X004497Y005421D01*
X004442Y005347D02*
X004339Y005347D01*
X004339Y005248D02*
X004344Y005248D01*
X004339Y005544D02*
X004374Y005544D01*
X005127Y005578D02*
X005127Y005421D01*
X005127Y005283D01*
X005127Y005421D02*
X005323Y005421D01*
X005323Y004535D01*
X006131Y004535D02*
X006131Y005401D01*
X006308Y005401D01*
X006308Y005445D02*
X006421Y005445D01*
X006465Y005401D02*
X006308Y005559D01*
X006308Y005224D01*
X006465Y005381D01*
X006465Y005401D01*
X006431Y005347D02*
X006308Y005347D01*
X006308Y005248D02*
X006332Y005248D01*
X006308Y005544D02*
X006322Y005544D01*
X007134Y005578D02*
X007134Y005421D01*
X007134Y005283D01*
X007134Y005421D02*
X007331Y005421D01*
X007331Y004535D01*
D11*
X006873Y005177D02*
X006946Y005251D01*
X006946Y005397D01*
X006800Y005397D01*
X006653Y005251D02*
X006726Y005177D01*
X006873Y005177D01*
X006653Y005251D02*
X006653Y005544D01*
X006726Y005618D01*
X006873Y005618D01*
X006946Y005544D01*
X006631Y006514D02*
X006631Y006734D01*
X006558Y006807D01*
X006485Y006734D01*
X006485Y006514D01*
X006338Y006514D02*
X006338Y006807D01*
X006411Y006807D01*
X006485Y006734D01*
X006171Y006734D02*
X006171Y006587D01*
X006098Y006514D01*
X005951Y006514D01*
X005878Y006587D01*
X005878Y006734D01*
X005951Y006807D01*
X006098Y006807D01*
X006171Y006734D01*
X005711Y006807D02*
X005491Y006807D01*
X005417Y006734D01*
X005417Y006587D01*
X005491Y006514D01*
X005711Y006514D01*
X005260Y006514D02*
X005187Y006514D01*
X005187Y006587D01*
X005260Y006587D01*
X005260Y006514D01*
X005020Y006514D02*
X004727Y006807D01*
X004493Y006807D02*
X004493Y006514D01*
X004420Y006514D02*
X004566Y006514D01*
X004727Y006514D02*
X005020Y006807D01*
X004493Y006807D02*
X004420Y006807D01*
X004493Y006954D02*
X004493Y007028D01*
X004186Y006954D02*
X004186Y006514D01*
X004113Y006514D02*
X004259Y006514D01*
X003953Y006514D02*
X003806Y006514D01*
X003879Y006514D02*
X003879Y006807D01*
X003806Y006807D01*
X003879Y006954D02*
X003879Y007028D01*
X004113Y006954D02*
X004186Y006954D01*
X003639Y006807D02*
X003639Y006514D01*
X003419Y006514D01*
X003345Y006587D01*
X003345Y006807D01*
X003179Y006807D02*
X002958Y006807D01*
X002885Y006734D01*
X002885Y006587D01*
X002958Y006514D01*
X003179Y006514D01*
X003179Y006367D02*
X003179Y006807D01*
X002857Y005637D02*
X002637Y005637D01*
X002637Y005197D01*
X002857Y005197D01*
X002931Y005270D01*
X002931Y005344D01*
X002857Y005417D01*
X002637Y005417D01*
X002857Y005417D02*
X002931Y005491D01*
X002931Y005564D01*
X002857Y005637D01*
X004665Y005618D02*
X004665Y005177D01*
X004665Y005324D02*
X004885Y005324D01*
X004958Y005397D01*
X004958Y005544D01*
X004885Y005618D01*
X004665Y005618D01*
X004811Y005324D02*
X004958Y005177D01*
X005840Y008071D02*
X005767Y008144D01*
X005840Y008071D02*
X005987Y008071D01*
X006061Y008144D01*
X006061Y008291D01*
X005987Y008365D01*
X005914Y008365D01*
X005767Y008291D01*
X005767Y008511D01*
X006061Y008511D01*
X005968Y008721D02*
X005821Y008721D01*
X005747Y008794D01*
X005894Y008941D02*
X005968Y008941D01*
X006041Y008867D01*
X006041Y008794D01*
X005968Y008721D01*
X005968Y008941D02*
X006041Y009014D01*
X006041Y009088D01*
X005968Y009161D01*
X005821Y009161D01*
X005747Y009088D01*
X005747Y009370D02*
X006041Y009370D01*
X005894Y009370D02*
X005894Y009811D01*
X005747Y009664D01*
X005731Y010372D02*
X005511Y010372D01*
X005511Y010813D01*
X005731Y010813D01*
X005805Y010739D01*
X005805Y010446D01*
X005731Y010372D01*
X005344Y010372D02*
X005051Y010372D01*
X005051Y010813D01*
X005344Y010813D01*
X005198Y010592D02*
X005051Y010592D01*
X004884Y010372D02*
X004590Y010372D01*
X004590Y010813D01*
X004424Y010739D02*
X004350Y010813D01*
X004203Y010813D01*
X004130Y010739D01*
X004130Y010446D01*
X004203Y010372D01*
X004350Y010372D01*
X004424Y010446D01*
X004424Y010739D01*
X003963Y010739D02*
X003890Y010813D01*
X003743Y010813D01*
X003670Y010739D01*
X003670Y010446D01*
X003743Y010372D01*
X003890Y010372D01*
X003963Y010446D01*
X003509Y010372D02*
X003363Y010372D01*
X003436Y010372D02*
X003436Y010813D01*
X003363Y010813D02*
X003509Y010813D01*
X003196Y010739D02*
X003196Y010592D01*
X003122Y010519D01*
X002902Y010519D01*
X002902Y010372D02*
X002902Y010813D01*
X003122Y010813D01*
X003196Y010739D01*
X003419Y009811D02*
X003346Y009737D01*
X003419Y009811D02*
X003566Y009811D01*
X003639Y009737D01*
X003639Y009664D01*
X003346Y009370D01*
X003639Y009370D01*
X003566Y009141D02*
X003346Y008921D01*
X003639Y008921D01*
X003566Y008701D02*
X003566Y009141D01*
X003639Y008511D02*
X003493Y008438D01*
X003346Y008291D01*
X003566Y008291D01*
X003639Y008218D01*
X003639Y008144D01*
X003566Y008071D01*
X003419Y008071D01*
X003346Y008144D01*
X003346Y008291D01*
X006090Y010955D02*
X006236Y010955D01*
X006163Y011028D02*
X006163Y010735D01*
X006236Y010661D01*
X006397Y010661D02*
X006397Y010955D01*
X006470Y010955D01*
X006543Y010882D01*
X006617Y010955D01*
X006690Y010882D01*
X006690Y010661D01*
X006543Y010661D02*
X006543Y010882D01*
D12*
X007701Y006311D02*
X007703Y006361D01*
X007709Y006411D01*
X007719Y006461D01*
X007732Y006509D01*
X007749Y006557D01*
X007770Y006603D01*
X007794Y006647D01*
X007822Y006689D01*
X007853Y006729D01*
X007887Y006766D01*
X007924Y006801D01*
X007963Y006832D01*
X008004Y006861D01*
X008048Y006886D01*
X008094Y006908D01*
X008141Y006926D01*
X008189Y006940D01*
X008238Y006951D01*
X008288Y006958D01*
X008338Y006961D01*
X008389Y006960D01*
X008439Y006955D01*
X008489Y006946D01*
X008537Y006934D01*
X008585Y006917D01*
X008631Y006897D01*
X008676Y006874D01*
X008719Y006847D01*
X008759Y006817D01*
X008797Y006784D01*
X008832Y006748D01*
X008865Y006709D01*
X008894Y006668D01*
X008920Y006625D01*
X008943Y006580D01*
X008962Y006533D01*
X008977Y006485D01*
X008989Y006436D01*
X008997Y006386D01*
X009001Y006336D01*
X009001Y006286D01*
X008997Y006236D01*
X008989Y006186D01*
X008977Y006137D01*
X008962Y006089D01*
X008943Y006042D01*
X008920Y005997D01*
X008894Y005954D01*
X008865Y005913D01*
X008832Y005874D01*
X008797Y005838D01*
X008759Y005805D01*
X008719Y005775D01*
X008676Y005748D01*
X008631Y005725D01*
X008585Y005705D01*
X008537Y005688D01*
X008489Y005676D01*
X008439Y005667D01*
X008389Y005662D01*
X008338Y005661D01*
X008288Y005664D01*
X008238Y005671D01*
X008189Y005682D01*
X008141Y005696D01*
X008094Y005714D01*
X008048Y005736D01*
X008004Y005761D01*
X007963Y005790D01*
X007924Y005821D01*
X007887Y005856D01*
X007853Y005893D01*
X007822Y005933D01*
X007794Y005975D01*
X007770Y006019D01*
X007749Y006065D01*
X007732Y006113D01*
X007719Y006161D01*
X007709Y006211D01*
X007703Y006261D01*
X007701Y006311D01*
X000575Y006311D02*
X000577Y006361D01*
X000583Y006411D01*
X000593Y006461D01*
X000606Y006509D01*
X000623Y006557D01*
X000644Y006603D01*
X000668Y006647D01*
X000696Y006689D01*
X000727Y006729D01*
X000761Y006766D01*
X000798Y006801D01*
X000837Y006832D01*
X000878Y006861D01*
X000922Y006886D01*
X000968Y006908D01*
X001015Y006926D01*
X001063Y006940D01*
X001112Y006951D01*
X001162Y006958D01*
X001212Y006961D01*
X001263Y006960D01*
X001313Y006955D01*
X001363Y006946D01*
X001411Y006934D01*
X001459Y006917D01*
X001505Y006897D01*
X001550Y006874D01*
X001593Y006847D01*
X001633Y006817D01*
X001671Y006784D01*
X001706Y006748D01*
X001739Y006709D01*
X001768Y006668D01*
X001794Y006625D01*
X001817Y006580D01*
X001836Y006533D01*
X001851Y006485D01*
X001863Y006436D01*
X001871Y006386D01*
X001875Y006336D01*
X001875Y006286D01*
X001871Y006236D01*
X001863Y006186D01*
X001851Y006137D01*
X001836Y006089D01*
X001817Y006042D01*
X001794Y005997D01*
X001768Y005954D01*
X001739Y005913D01*
X001706Y005874D01*
X001671Y005838D01*
X001633Y005805D01*
X001593Y005775D01*
X001550Y005748D01*
X001505Y005725D01*
X001459Y005705D01*
X001411Y005688D01*
X001363Y005676D01*
X001313Y005667D01*
X001263Y005662D01*
X001212Y005661D01*
X001162Y005664D01*
X001112Y005671D01*
X001063Y005682D01*
X001015Y005696D01*
X000968Y005714D01*
X000922Y005736D01*
X000878Y005761D01*
X000837Y005790D01*
X000798Y005821D01*
X000761Y005856D01*
X000727Y005893D01*
X000696Y005933D01*
X000668Y005975D01*
X000644Y006019D01*
X000623Y006065D01*
X000606Y006113D01*
X000593Y006161D01*
X000583Y006211D01*
X000577Y006261D01*
X000575Y006311D01*
M02*
